[in#0 @ 00000193bd612700] Capturing whole desktop as 1140x940x32 at (80,80)
[in#0/gdigrab @ 00000193bd612700] Stream #0: not enough frames to estimate rate; consider increasing probesize
Input #0, gdigrab, from 'desktop':
  Duration: N/A, start: 1783802886.131882, bitrate: 1028748 kb/s
  Stream #0:0: Video: bmp, bgra, 1140x940, 1028748 kb/s, 30 fps, 1000k tbr, 1000k tbn, start 1783802886.131882
Stream mapping:
  Stream #0:0 -> #0:0 (bmp (native) -> h264 (libx264))
Press [q] to stop, [?] for help
[libx264 @ 00000193bd6aaa40] using cpu capabilities: MMX2 SSE2Fast SSSE3 SSE4.2 AVX FMA3 BMI2 AVX2 AVX512
[libx264 @ 00000193bd6aaa40] profile High, level 3.2, 4:2:0, 8-bit
[libx264 @ 00000193bd6aaa40] 264 - core 165 r3223 0480cb0 - H.264/MPEG-4 AVC codec - Copyleft 2003-2025 - http://www.videolan.org/x264.html - options: cabac=1 ref=1 deblock=1:0:0 analyse=0x3:0x113 me=hex subme=2 psy=1 psy_rd=1.00:0.00 mixed_ref=0 me_range=16 chroma_me=1 trellis=0 8x8dct=1 cqm=0 deadzone=21,11 fast_pskip=1 chroma_qp_offset=0 threads=18 lookahead_threads=6 sliced_threads=0 nr=0 decimate=1 interlaced=0 bluray_compat=0 constrained_intra=0 bframes=3 b_pyramid=2 b_adapt=1 b_bias=0 direct=1 weightb=1 open_gop=0 weightp=1 keyint=250 keyint_min=25 scenecut=40 intra_refresh=0 rc_lookahead=10 rc=crf mbtree=1 crf=18.0 qcomp=0.60 qpmin=0 qpmax=69 qpstep=4 ip_ratio=1.40 aq=1:1.00
Output #0, matroska, to 'E:\Programming\voxel-nexus\docs\evidence\milestone-completion\issue-30-refresh\lifecycle\milestone-proof.mkv':
  Metadata:
    encoder         : Lavf62.12.102
  Stream #0:0: Video: h264 (H264 / 0x34363248), yuv420p(tv, progressive), 1140x940, q=2-31, 30 fps, 1k tbn
    Metadata:
      encoder         : Lavc62.28.102 libx264
    Side data:
      CPB properties: bitrate max/min/avg: 0/0/0 buffer size: 0 vbv_delay: N/A
frame=    0 fps=0.0 q=0.0 size=       0KiB time=N/A bitrate=N/A speed=N/A elapsed=0:00:00.51    frame=    1 fps=1.0 q=24.0 size=       1KiB time=-00:00:00.03 bitrate=N/A speed=N/A elapsed=0:00:01.04    frame=   16 fps= 10 q=24.0 size=       1KiB time=00:00:00.43 bitrate=  11.0kbits/s speed=0.279x elapsed=0:00:01.55    frame=   31 fps= 15 q=24.0 size=       1KiB time=00:00:00.93 bitrate=   5.1kbits/s speed=0.451x elapsed=0:00:02.06    frame=   47 fps= 18 q=24.0 size=       1KiB time=00:00:01.46 bitrate=   3.2kbits/s speed=0.568x elapsed=0:00:02.58    frame=   62 fps= 20 q=24.0 size=       1KiB time=00:00:01.96 bitrate=   2.4kbits/s speed=0.634x elapsed=0:00:03.10    frame=   78 fps= 22 q=24.0 size=       1KiB time=00:00:02.50 bitrate=   1.9kbits/s speed=0.691x elapsed=0:00:03.61    frame=   93 fps= 23 q=24.0 size=       1KiB time=00:00:03.00 bitrate=   1.6kbits/s speed=0.727x elapsed=0:00:04.12    frame=  109 fps= 23 q=24.0 size=       1KiB time=00:00:03.53 bitrate=   1.3kbits/s speed=0.759x elapsed=0:00:04.65    frame=  124 fps= 24 q=24.0 size=       1KiB time=00:00:04.03 bitrate=   1.2kbits/s speed=0.782x elapsed=0:00:05.15    frame=  140 fps= 25 q=24.0 size=       1KiB time=00:00:04.56 bitrate=   1.0kbits/s speed=0.805x elapsed=0:00:05.67    frame=  155 fps= 25 q=24.0 size=      19KiB time=00:00:05.06 bitrate=  31.3kbits/s speed=0.818x elapsed=0:00:06.19    frame=  170 fps= 25 q=24.0 size=      19KiB time=00:00:05.56 bitrate=  28.5kbits/s speed=0.83x elapsed=0:00:06.70    frame=  186 fps= 26 q=24.0 size=      19KiB time=00:00:06.10 bitrate=  26.0kbits/s speed=0.844x elapsed=0:00:07.22    frame=  202 fps= 26 q=24.0 size=      19KiB time=00:00:06.63 bitrate=  23.9kbits/s speed=0.857x elapsed=0:00:07.73    frame=  217 fps= 26 q=24.0 size=      19KiB time=00:00:07.13 bitrate=  22.2kbits/s speed=0.864x elapsed=0:00:08.25    frame=  232 fps= 26 q=24.0 size=      19KiB time=00:00:07.63 bitrate=  20.8kbits/s speed=0.871x elapsed=0:00:08.76    frame=  248 fps= 27 q=24.0 size=      19KiB time=00:00:08.16 bitrate=  19.4kbits/s speed=0.88x elapsed=0:00:09.28    frame=  264 fps= 27 q=24.0 size=      19KiB time=00:00:08.70 bitrate=  18.2kbits/s speed=0.887x elapsed=0:00:09.80    frame=  279 fps= 27 q=24.0 size=      19KiB time=00:00:09.20 bitrate=  17.2kbits/s speed=0.891x elapsed=0:00:10.32    frame=  294 fps= 27 q=24.0 size=      19KiB time=00:00:09.70 bitrate=  16.4kbits/s speed=0.895x elapsed=0:00:10.83    frame=  309 fps= 27 q=24.0 size=      38KiB time=00:00:10.20 bitrate=  30.2kbits/s dup=0 drop=1 speed=0.898x elapsed=0:00:11.35    frame=  324 fps= 27 q=24.0 size=      38KiB time=00:00:10.70 bitrate=  28.8kbits/s dup=0 drop=1 speed=0.902x elapsed=0:00:11.86    frame=  340 fps= 27 q=24.0 size=      38KiB time=00:00:11.26 bitrate=  27.4kbits/s dup=0 drop=1 speed=0.91x elapsed=0:00:12.38    frame=  355 fps= 28 q=24.0 size=      38KiB time=00:00:11.76 bitrate=  26.2kbits/s dup=0 drop=1 speed=0.913x elapsed=0:00:12.89    frame=  371 fps= 28 q=24.0 size=      38KiB time=00:00:12.30 bitrate=  25.1kbits/s dup=0 drop=1 speed=0.917x elapsed=0:00:13.41    frame=  386 fps= 28 q=24.0 size=      38KiB time=00:00:12.80 bitrate=  24.1kbits/s dup=0 drop=1 speed=0.919x elapsed=0:00:13.92    frame=  402 fps= 28 q=24.0 size=      38KiB time=00:00:13.33 bitrate=  23.1kbits/s dup=0 drop=1 speed=0.923x elapsed=0:00:14.44    frame=  417 fps= 28 q=24.0 size=      38KiB time=00:00:13.83 bitrate=  22.3kbits/s dup=0 drop=1 speed=0.925x elapsed=0:00:14.95    frame=  433 fps= 28 q=24.0 size=      38KiB time=00:00:14.36 bitrate=  21.5kbits/s dup=0 drop=1 speed=0.928x elapsed=0:00:15.47    frame=  448 fps= 28 q=24.0 size=      38KiB time=00:00:14.86 bitrate=  20.8kbits/s dup=0 drop=1 speed=0.93x elapsed=0:00:15.98    frame=  464 fps= 28 q=24.0 size=      69KiB time=00:00:15.40 bitrate=  36.5kbits/s dup=0 drop=1 speed=0.933x elapsed=0:00:16.51    frame=  479 fps= 28 q=24.0 size=      69KiB time=00:00:15.90 bitrate=  35.3kbits/s dup=0 drop=1 speed=0.934x elapsed=0:00:17.02    frame=  494 fps= 28 q=24.0 size=      69KiB time=00:00:16.40 bitrate=  34.3kbits/s dup=0 drop=1 speed=0.935x elapsed=0:00:17.53    frame=  510 fps= 28 q=24.0 size=      69KiB time=00:00:16.93 bitrate=  33.2kbits/s dup=0 drop=1 speed=0.938x elapsed=0:00:18.05    frame=  526 fps= 28 q=24.0 size=      69KiB time=00:00:17.46 bitrate=  32.2kbits/s dup=0 drop=1 speed=0.94x elapsed=0:00:18.57    frame=  541 fps= 28 q=24.0 size=      69KiB time=00:00:17.96 bitrate=  31.3kbits/s dup=0 drop=1 speed=0.942x elapsed=0:00:19.08    frame=  556 fps= 28 q=24.0 size=      69KiB time=00:00:18.46 bitrate=  30.4kbits/s dup=0 drop=1 speed=0.943x elapsed=0:00:19.59    frame=  571 fps= 28 q=24.0 size=      69KiB time=00:00:18.96 bitrate=  29.6kbits/s dup=0 drop=1 speed=0.943x elapsed=0:00:20.11    frame=  587 fps= 28 q=24.0 size=      79KiB time=00:00:19.50 bitrate=  33.0kbits/s dup=0 drop=1 speed=0.945x elapsed=0:00:20.62    frame=  603 fps= 29 q=24.0 size=      79KiB time=00:00:20.03 bitrate=  32.1kbits/s dup=0 drop=1 speed=0.947x elapsed=0:00:21.15    frame=  617 fps= 28 q=24.0 size=      79KiB time=00:00:20.50 bitrate=  31.4kbits/s dup=0 drop=2 speed=0.946x elapsed=0:00:21.66    frame=  633 fps= 29 q=24.0 size=      79KiB time=00:00:21.03 bitrate=  30.6kbits/s dup=0 drop=2 speed=0.949x elapsed=0:00:22.17    frame=  648 fps= 29 q=24.0 size=      79KiB time=00:00:21.56 bitrate=  29.8kbits/s dup=0 drop=2 speed=0.95x elapsed=0:00:22.69    frame=  663 fps= 29 q=24.0 size=      79KiB time=00:00:22.06 bitrate=  29.1kbits/s dup=0 drop=2 speed=0.951x elapsed=0:00:23.20    frame=  679 fps= 29 q=24.0 size=      79KiB time=00:00:22.60 bitrate=  28.5kbits/s dup=0 drop=2 speed=0.952x elapsed=0:00:23.73    frame=  695 fps= 29 q=24.0 size=      79KiB time=00:00:23.13 bitrate=  27.8kbits/s dup=0 drop=2 speed=0.954x elapsed=0:00:24.23    frame=  710 fps= 29 q=24.0 size=      79KiB time=00:00:23.63 bitrate=  27.2kbits/s dup=0 drop=2 speed=0.955x elapsed=0:00:24.75    frame=  725 fps= 29 q=24.0 size=     106KiB time=00:00:24.13 bitrate=  35.9kbits/s dup=0 drop=2 speed=0.955x elapsed=0:00:25.26    frame=  741 fps= 29 q=24.0 size=     106KiB time=00:00:24.66 bitrate=  35.1kbits/s dup=0 drop=2 speed=0.956x elapsed=0:00:25.79    frame=  756 fps= 29 q=24.0 size=     106KiB time=00:00:25.16 bitrate=  34.4kbits/s dup=0 drop=2 speed=0.957x elapsed=0:00:26.30    frame=  772 fps= 29 q=24.0 size=     106KiB time=00:00:25.70 bitrate=  33.7kbits/s dup=0 drop=2 speed=0.958x elapsed=0:00:26.81    frame=  787 fps= 29 q=24.0 size=     106KiB time=00:00:26.20 bitrate=  33.1kbits/s dup=0 drop=2 speed=0.958x elapsed=0:00:27.33    frame=  803 fps= 29 q=24.0 size=     120KiB time=00:00:26.73 bitrate=  36.8kbits/s dup=0 drop=2 speed=0.96x elapsed=0:00:27.84    frame=  818 fps= 29 q=24.0 size=     120KiB time=00:00:27.23 bitrate=  36.1kbits/s dup=0 drop=2 speed=0.96x elapsed=0:00:28.35    frame=  834 fps= 29 q=24.0 size=     120KiB time=00:00:27.76 bitrate=  35.4kbits/s dup=0 drop=2 speed=0.962x elapsed=0:00:28.87    frame=  848 fps= 29 q=24.0 size=     120KiB time=00:00:28.23 bitrate=  34.8kbits/s dup=0 drop=3 speed=0.96x elapsed=0:00:29.40    frame=  863 fps= 29 q=24.0 size=     120KiB time=00:00:28.73 bitrate=  34.2kbits/s dup=0 drop=4 speed=0.96x elapsed=0:00:29.93    frame=  879 fps= 29 q=24.0 size=     120KiB time=00:00:29.30 bitrate=  33.6kbits/s dup=0 drop=4 speed=0.962x elapsed=0:00:30.44    frame=  894 fps= 29 q=24.0 size=     120KiB time=00:00:29.83 bitrate=  33.0kbits/s dup=0 drop=4 speed=0.964x elapsed=0:00:30.95    frame=  910 fps= 29 q=24.0 size=     120KiB time=00:00:30.36 bitrate=  32.4kbits/s dup=0 drop=4 speed=0.965x elapsed=0:00:31.47    frame=  925 fps= 29 q=24.0 size=     120KiB time=00:00:30.86 bitrate=  31.9kbits/s dup=0 drop=4 speed=0.965x elapsed=0:00:31.98    frame=  941 fps= 29 q=24.0 size=     120KiB time=00:00:31.40 bitrate=  31.3kbits/s dup=0 drop=4 speed=0.966x elapsed=0:00:32.50    frame=  956 fps= 29 q=24.0 size=     163KiB time=00:00:31.90 bitrate=  41.8kbits/s dup=0 drop=4 speed=0.966x elapsed=0:00:33.01    frame=  971 fps= 29 q=24.0 size=     163KiB time=00:00:32.40 bitrate=  41.1kbits/s dup=0 drop=4 speed=0.966x elapsed=0:00:33.53    frame=  986 fps= 29 q=24.0 size=     163KiB time=00:00:32.90 bitrate=  40.5kbits/s dup=0 drop=5 speed=0.966x elapsed=0:00:34.05    frame= 1001 fps= 29 q=24.0 size=     163KiB time=00:00:33.40 bitrate=  39.9kbits/s dup=0 drop=5 speed=0.966x elapsed=0:00:34.56    frame= 1017 fps= 29 q=24.0 size=     171KiB time=00:00:33.96 bitrate=  41.2kbits/s dup=0 drop=5 speed=0.968x elapsed=0:00:35.08    frame= 1032 fps= 29 q=24.0 size=     171KiB time=00:00:34.46 bitrate=  40.6kbits/s dup=0 drop=5 speed=0.968x elapsed=0:00:35.59    frame= 1048 fps= 29 q=24.0 size=     171KiB time=00:00:35.00 bitrate=  40.0kbits/s dup=0 drop=5 speed=0.969x elapsed=0:00:36.12    frame= 1063 fps= 29 q=24.0 size=     171KiB time=00:00:35.50 bitrate=  39.4kbits/s dup=0 drop=5 speed=0.969x elapsed=0:00:36.63    frame= 1079 fps= 29 q=24.0 size=     171KiB time=00:00:36.03 bitrate=  38.8kbits/s dup=0 drop=5 speed=0.97x elapsed=0:00:37.14    frame= 1094 fps= 29 q=24.0 size=     171KiB time=00:00:36.53 bitrate=  38.3kbits/s dup=0 drop=5 speed=0.97x elapsed=0:00:37.65    

[q] command received. Exiting.

[out#0/matroska @ 00000193bd630c00] video:254KiB audio:0KiB subtitle:0KiB other streams:0KiB global headers:0KiB muxing overhead: 3.009992%
frame= 1141 fps= 30 q=-1.0 Lsize=     261KiB time=00:00:38.13 bitrate=  56.1kbits/s dup=0 drop=6 speed=0.998x elapsed=0:00:38.21    
[libx264 @ 00000193bd6aaa40] frame I:7     Avg QP: 3.74  size:  8076
[libx264 @ 00000193bd6aaa40] frame P:300   Avg QP: 9.04  size:   433
[libx264 @ 00000193bd6aaa40] frame B:834   Avg QP: 9.58  size:    87
[libx264 @ 00000193bd6aaa40] consecutive B-frames:  2.1%  0.9%  1.3% 95.7%
[libx264 @ 00000193bd6aaa40] mb I  I16..4: 95.7%  0.3%  4.0%
[libx264 @ 00000193bd6aaa40] mb P  I16..4:  3.3%  0.0%  0.2%  P16..4:  0.1%  0.1%  0.0%  0.0%  0.0%    skip:96.2%
[libx264 @ 00000193bd6aaa40] mb B  I16..4:  0.0%  0.0%  0.0%  B16..8:  0.3%  0.1%  0.0%  direct: 0.0%  skip:99.6%  L0:40.9% L1:57.0% BI: 2.2%
[libx264 @ 00000193bd6aaa40] 8x8 transform intra:0.5% inter:1.6%
[libx264 @ 00000193bd6aaa40] coded y,uvDC,uvAC intra: 3.1% 5.5% 4.5% inter: 0.0% 0.0% 0.0%
[libx264 @ 00000193bd6aaa40] i16 v,h,dc,p: 93%  6%  1%  0%
[libx264 @ 00000193bd6aaa40] i8 v,h,dc,ddl,ddr,vr,hd,vl,hu: 19% 20% 39%  4%  1%  0%  6%  1% 10%
[libx264 @ 00000193bd6aaa40] i4 v,h,dc,ddl,ddr,vr,hd,vl,hu: 23% 27% 34%  2%  1%  1%  6%  1%  5%
[libx264 @ 00000193bd6aaa40] i8c dc,h,v,p: 88%  6%  6%  1%
[libx264 @ 00000193bd6aaa40] Weighted P-Frames: Y:1.0% UV:0.0%
[libx264 @ 00000193bd6aaa40] kb/s:54.18
